<svg width="382" height="425" viewBox="0 0 382 425" fill="none" xmlns="http://www.w3.org/2000/svg">
<mask id="mask0_309:9" style="mask-type:alpha" maskUnits="userSpaceOnUse" x="0" y="0" width="322" height="410">
<path d="M239.207 392.6H293.913V406.376C293.913 408.247 292.397 409.763 290.527 409.763H242.593C240.723 409.763 239.207 408.247 239.207 406.376V392.6Z" fill="#71C9E8"/>
<path d="M30.0334 392.6H85.8128V406.376C85.8128 408.247 84.2966 409.763 82.4263 409.763H33.4199C31.5496 409.763 30.0334 408.247 30.0334 406.376V392.6Z" fill="#71C9E8"/>
<g style="mix-blend-mode:multiply">
<path d="M239.207 392.6H293.913V406.376C293.913 408.247 292.397 409.763 290.527 409.763H242.593C240.723 409.763 239.207 408.247 239.207 406.376V392.6Z" fill="#71C9E8"/>
</g>
<g style="mix-blend-mode:multiply">
<path d="M30.0334 392.6H85.8128V406.376C85.8128 408.247 84.2966 409.763 82.4263 409.763H33.4199C31.5496 409.763 30.0334 408.247 30.0334 406.376V392.6Z" fill="#71C9E8"/>
</g>
<path d="M0 3.38649C0 1.51619 1.51618 0 3.38648 0H318.417C320.287 0 321.803 1.51618 321.803 3.38648V389.514C321.803 391.385 320.287 392.901 318.417 392.901H3.38648C1.51618 392.901 0 391.385 0 389.514V3.38649Z" fill="#50BDE3"/>
</mask>
<g mask="url(#mask0_309:9)">
<path d="M239.207 392.6H293.913V405.763C293.913 407.972 292.122 409.763 289.913 409.763H243.207C240.997 409.763 239.207 407.972 239.207 405.763V392.6Z" fill="#71C9E8"/>
<path d="M30.0334 392.6H85.8128V405.763C85.8128 407.972 84.0219 409.763 81.8128 409.763H34.0334C31.8243 409.763 30.0334 407.972 30.0334 405.763V392.6Z" fill="#71C9E8"/>
<g style="mix-blend-mode:multiply">
<path d="M239.207 392.6H293.913V405.763C293.913 407.972 292.122 409.763 289.913 409.763H243.207C240.997 409.763 239.207 407.972 239.207 405.763V392.6Z" fill="#71C9E8"/>
</g>
<g style="mix-blend-mode:multiply">
<path d="M30.0334 392.6H85.8128V405.763C85.8128 407.972 84.0219 409.763 81.8128 409.763H34.0334C31.8243 409.763 30.0334 407.972 30.0334 405.763V392.6Z" fill="#71C9E8"/>
</g>
<path d="M0 4.00001C0 1.79087 1.79086 0 4 0H317.803C320.013 0 321.803 1.79086 321.803 4V388.901C321.803 391.11 320.013 392.901 317.803 392.901H4C1.79086 392.901 0 391.11 0 388.901V4.00001Z" fill="#50BDE3"/>
<g style="mix-blend-mode:multiply">
<path d="M30.0334 142.375C30.0334 140.165 31.8243 138.375 34.0334 138.375H191.963C194.172 138.375 195.963 140.165 195.963 142.375V366.51H30.0334V142.375Z" fill="#71C9E8"/>
</g>
<path d="M106.198 138.374H122.288V195.226H106.198V138.374Z" fill="#A0DDED"/>
<mask id="mask1_309:9" style="mask-type:alpha" maskUnits="userSpaceOnUse" x="49" y="159" width="128" height="208">
<path d="M101.369 191.447V159.828H127.548V191.447L169.212 211.749V221.401L176.217 227.059V235.047L172.162 241.038V264.003L176.217 268.663V276.983L172.162 280.644V338.224L176.217 344.215V358.859L169.212 366.847H56.0178L49.7498 358.859V344.215L56.0178 338.224V280.644L49.7498 276.983V268.663L56.0178 264.003V241.038L49.7498 235.047V227.059L56.0178 221.401V211.749L101.369 191.447Z" fill="#84C9D9"/>
</mask>
<g mask="url(#mask1_309:9)">
<path d="M33.4771 104.045H256.36V423.871H33.4771V104.045Z" fill="#BFF2FF"/>
<g style="mix-blend-mode:multiply" opacity="0.5">
<path d="M78.8686 274.108C62.66 271.861 -29.4263 297.186 -42.5905 306.814C-62.6165 321.46 -42.5905 647.238 -42.5905 647.238L248.536 688.146C248.536 688.146 240.807 263.192 214.728 262.807C201.142 262.607 153.086 294.181 139.598 295.802C125.015 297.555 117.681 289.094 103.912 284.025C94.0387 280.391 89.3001 275.555 78.8686 274.108Z" fill="#00A5CF"/>
</g>
<g style="mix-blend-mode:multiply" opacity="0.2">
<path d="M-31.6365 104.045H112.361V423.871H-31.6365V104.045Z" fill="#30C2E8"/>
</g>
<g style="mix-blend-mode:screen">
<path fill-rule="evenodd" clip-rule="evenodd" d="M118.066 166.739H120.066V196.362L141.352 213.153V360.122H139.352V214.122L118.066 197.332V166.739Z" fill="white"/>
</g>
</g>
<path fill-rule="evenodd" clip-rule="evenodd" d="M28.1716 142.149C28.1716 138.835 30.8579 136.149 34.1716 136.149H192.101C195.415 136.149 198.101 138.835 198.101 142.149V368.285H28.1716V142.149ZM34.1716 140.149C33.0671 140.149 32.1716 141.044 32.1716 142.149V364.285H194.101V142.149C194.101 141.044 193.206 140.149 192.101 140.149H34.1716Z" fill="#A0E6FA"/>
<g style="mix-blend-mode:multiply">
<path d="M213.697 145.367C213.697 143.158 215.488 141.367 217.697 141.367H290.148C292.357 141.367 294.148 143.158 294.148 145.367V155.111C294.148 157.32 292.357 159.111 290.148 159.111H217.697C215.488 159.111 213.697 157.32 213.697 155.111V145.367Z" fill="#A0E6FA"/>
</g>
<path d="M213.697 142.149C213.697 139.94 215.488 138.149 217.697 138.149H290.148C292.357 138.149 294.148 139.94 294.148 142.149V151.893C294.148 154.102 292.357 155.893 290.148 155.893H217.697C215.488 155.893 213.697 154.102 213.697 151.893V142.149Z" fill="#A0E6FA"/>
<g style="mix-blend-mode:multiply">
<path d="M213.697 173.25C213.697 171.041 215.488 169.25 217.697 169.25H290.148C292.357 169.25 294.148 171.041 294.148 173.25V223.552C294.148 225.761 292.357 227.552 290.148 227.552H217.697C215.488 227.552 213.697 225.761 213.697 223.552V173.25Z" fill="#A0E6FA"/>
</g>
<path d="M213.465 170.265C213.465 168.056 215.255 166.265 217.465 166.265H289.915C292.125 166.265 293.915 168.056 293.915 170.265V220.566C293.915 222.776 292.125 224.566 289.915 224.566H217.465C215.255 224.566 213.465 222.776 213.465 220.566V170.265Z" fill="#A0E6FA"/>
<g style="mix-blend-mode:multiply">
<path d="M213.697 239.155C213.697 236.946 215.488 235.155 217.697 235.155H290.148C292.357 235.155 294.148 236.946 294.148 239.155V365.502C294.148 367.711 292.357 369.502 290.148 369.502H217.697C215.488 369.502 213.697 367.711 213.697 365.502V239.155Z" fill="#A0E6FA"/>
</g>
<path d="M213.465 235.699C213.465 233.49 215.255 231.699 217.465 231.699H289.915C292.125 231.699 293.915 233.49 293.915 235.699V362.045C293.915 364.254 292.125 366.045 289.915 366.045H217.465C215.255 366.045 213.465 364.254 213.465 362.045V235.699Z" fill="#A0E6FA"/>
<g style="mix-blend-mode:multiply">
<path d="M30.0332 50.1245C30.0332 47.9154 31.8241 46.1245 34.0332 46.1245H290.013C292.222 46.1245 294.013 47.9154 294.013 50.1245V111.731C294.013 113.94 292.222 115.731 290.013 115.731H34.0332C31.8241 115.731 30.0332 113.94 30.0332 111.731V50.1245Z" fill="#A0E6FA"/>
</g>
<path d="M30.0334 40.4707C30.0334 38.2616 31.8243 36.4707 34.0334 36.4707H290.013C292.222 36.4707 294.013 38.2616 294.013 40.4707V108.516C294.013 110.725 292.222 112.516 290.013 112.516H34.0334C31.8243 112.516 30.0334 110.725 30.0334 108.516V40.4707Z" fill="#A0E6FA"/>
<path d="M124.236 64L114.16 94.8H106.504L99.728 73.944L92.732 94.8H85.12L75 64H82.392L89.344 85.648L96.604 64H103.204L110.244 85.824L117.416 64H124.236Z" fill="#50BDE3"/>
<path d="M147.468 88.2H133.168L130.44 94.8H123.136L136.864 64H143.904L157.676 94.8H150.196L147.468 88.2ZM145.224 82.788L140.34 70.996L135.456 82.788H145.224Z" fill="#50BDE3"/>
<path d="M165.705 69.808H155.849V64H182.689V69.808H172.833V94.8H165.705V69.808Z" fill="#50BDE3"/>
<path d="M210.372 89.08V94.8H186.524V64H209.8V69.72H193.608V76.408H207.908V81.952H193.608V89.08H210.372Z" fill="#50BDE3"/>
<path d="M235.667 94.8L229.727 86.22H229.375H223.171V94.8H216.043V64H229.375C232.103 64 234.465 64.4547 236.459 65.364C238.483 66.2733 240.038 67.564 241.123 69.236C242.209 70.908 242.751 72.888 242.751 75.176C242.751 77.464 242.194 79.444 241.079 81.116C239.994 82.7587 238.439 84.02 236.415 84.9L243.323 94.8H235.667ZM235.535 75.176C235.535 73.4453 234.978 72.1253 233.863 71.216C232.749 70.2773 231.121 69.808 228.979 69.808H223.171V80.544H228.979C231.121 80.544 232.749 80.0747 233.863 79.136C234.978 78.1973 235.535 76.8773 235.535 75.176Z" fill="#50BDE3"/>
<g style="mix-blend-mode:screen">
<path d="M127.236 61L117.16 91.8H109.504L102.728 70.944L95.732 91.8H88.12L78 61H85.392L92.344 82.648L99.604 61H106.204L113.244 82.824L120.416 61H127.236Z" fill="white"/>
<path d="M150.468 85.2H136.168L133.44 91.8H126.136L139.864 61H146.904L160.676 91.8H153.196L150.468 85.2ZM148.224 79.788L143.34 67.996L138.456 79.788H148.224Z" fill="white"/>
<path d="M168.705 66.808H158.849V61H185.689V66.808H175.833V91.8H168.705V66.808Z" fill="white"/>
<path d="M213.372 86.08V91.8H189.524V61H212.8V66.72H196.608V73.408H210.908V78.952H196.608V86.08H213.372Z" fill="white"/>
<path d="M238.667 91.8L232.727 83.22H232.375H226.171V91.8H219.043V61H232.375C235.103 61 237.465 61.4547 239.459 62.364C241.483 63.2733 243.038 64.564 244.123 66.236C245.209 67.908 245.751 69.888 245.751 72.176C245.751 74.464 245.194 76.444 244.079 78.116C242.994 79.7587 241.439 81.02 239.415 81.9L246.323 91.8H238.667ZM238.535 72.176C238.535 70.4453 237.978 69.1253 236.863 68.216C235.749 67.2773 234.121 66.808 231.979 66.808H226.171V77.544H231.979C234.121 77.544 235.749 77.0747 236.863 76.136C237.978 75.1973 238.535 73.8773 238.535 72.176Z" fill="white"/>
</g>
<g style="mix-blend-mode:screen">
<path d="M3.21704 7.5092C3.21704 6.91678 3.6973 6.43652 4.28972 6.43652H317.512C318.104 6.43652 318.584 6.91678 318.584 7.5092V7.5092C318.584 8.10163 318.104 8.58188 317.512 8.58188H4.28973C3.69731 8.58188 3.21704 8.10163 3.21704 7.5092V7.5092Z" fill="white" fill-opacity="0.8"/>
</g>
<g style="mix-blend-mode:screen">
<path d="M33.2502 40.7597C33.2502 40.1673 33.7305 39.687 34.3229 39.687H289.62C290.213 39.687 290.693 40.1673 290.693 40.7597V40.7597C290.693 41.3521 290.213 41.8324 289.62 41.8324H34.3229C33.7305 41.8324 33.2502 41.3521 33.2502 40.7597V40.7597Z" fill="white" fill-opacity="0.8"/>
</g>
<g style="mix-blend-mode:screen">
<path d="M216.682 142.667C216.682 142.074 217.162 141.594 217.754 141.594H289.624C290.216 141.594 290.696 142.074 290.696 142.667V142.667C290.696 143.259 290.216 143.74 289.624 143.74H217.754C217.162 143.74 216.682 143.259 216.682 142.667V142.667Z" fill="white" fill-opacity="0.8"/>
</g>
<g style="mix-blend-mode:screen">
<path d="M216.682 170.555C216.682 169.962 217.162 169.482 217.754 169.482H289.624C290.216 169.482 290.696 169.962 290.696 170.555V170.555C290.696 171.147 290.216 171.627 289.624 171.627H217.754C217.162 171.627 216.682 171.147 216.682 170.555V170.555Z" fill="white" fill-opacity="0.8"/>
</g>
<g style="mix-blend-mode:screen">
<path d="M216.682 235.988C216.682 235.395 217.162 234.915 217.754 234.915H289.624C290.216 234.915 290.696 235.395 290.696 235.988V235.988C290.696 236.58 290.216 237.06 289.624 237.06H217.754C217.162 237.06 216.682 236.58 216.682 235.988V235.988Z" fill="white" fill-opacity="0.8"/>
</g>
<g style="mix-blend-mode:multiply" opacity="0.27">
<path d="M-38.9446 -51.644H428.389V485.112H-38.9446V-51.644Z" fill="#33A3CA"/>
</g>
</g>
<mask id="mask2_309:9" style="mask-type:alpha" maskUnits="userSpaceOnUse" x="259" y="221" width="123" height="204">
<path d="M309.243 252.83V221.814H334.69V252.83L375.19 272.745V282.213L382 287.764V295.599L378.058 301.476V324.003L382 328.574V336.736L378.058 340.328V396.809L382 402.686V417.051L375.19 424.887H265.158L259.065 417.051V402.686L265.158 396.809V340.328L259.065 336.736V328.574L265.158 324.003V301.476L259.065 295.599V287.764L265.158 282.213V272.745L309.243 252.83Z" fill="#84C9D9"/>
</mask>
<g mask="url(#mask2_309:9)">
<path d="M243.242 167.094H459.899V480.823H243.242V167.094Z" fill="#BFF2FF"/>
<g style="mix-blend-mode:multiply" opacity="0.5">
<path d="M298.015 280.931C282.259 278.727 192.746 303.57 179.949 313.014C160.483 327.381 179.949 646.949 179.949 646.949L462.942 687.077C462.942 687.077 455.43 270.223 430.079 269.846C416.873 269.649 370.159 300.621 357.048 302.211C342.872 303.931 335.743 295.631 322.359 290.659C312.761 287.094 308.155 282.35 298.015 280.931Z" fill="#00A5CF"/>
</g>
<g style="mix-blend-mode:multiply" opacity="0.2">
<path d="M179.948 167.094H319.924V480.823H179.948V167.094Z" fill="#30C2E8"/>
</g>
<g style="mix-blend-mode:screen">
<path fill-rule="evenodd" clip-rule="evenodd" d="M325.444 228.594H327.444V257.645L348.136 274.116V418.291H346.136V275.08L325.444 258.61V228.594Z" fill="white"/>
</g>
</g>
</svg>
