<svg width="236" height="300" viewBox="0 0 236 300" fill="none" xmlns="http://www.w3.org/2000/svg">
<mask id="mask0_445:4" style="mask-type:alpha" maskUnits="userSpaceOnUse" x="0" y="0" width="236" height="300">
<g opacity="0.85">
<path d="M175.13 287.435H215.182V296C215.182 298.209 213.392 300 211.182 300H179.13C176.921 300 175.13 298.209 175.13 296V287.435Z" fill="#71C9E8"/>
<path d="M21.9883 287.435H62.826V296C62.826 298.209 61.0351 300 58.826 300H25.9883C23.7791 300 21.9883 298.209 21.9883 296V287.435Z" fill="#71C9E8"/>
<g style="mix-blend-mode:multiply">
<path d="M175.13 287.435H215.182V296C215.182 298.209 213.392 300 211.182 300H179.13C176.921 300 175.13 298.209 175.13 296V287.435Z" fill="#71C9E8"/>
</g>
<g style="mix-blend-mode:multiply">
<path d="M21.9883 287.435H62.826V296C62.826 298.209 61.0351 300 58.826 300H25.9883C23.7791 300 21.9883 298.209 21.9883 296V287.435Z" fill="#71C9E8"/>
</g>
<path d="M0 4C0 1.79086 1.79086 0 4 0H231.602C233.811 0 235.602 1.79086 235.602 4V283.654C235.602 285.863 233.811 287.654 231.602 287.654H4C1.79086 287.654 0 285.863 0 283.654V4Z" fill="#50BDE3"/>
<g style="mix-blend-mode:multiply">
<path d="M21.9883 105.308C21.9883 103.099 23.7791 101.308 25.9883 101.308H139.47C141.68 101.308 143.47 103.099 143.47 105.308V268.333H21.9883V105.308Z" fill="#71C9E8"/>
</g>
<path d="M77.7505 101.308H89.5306V142.931H77.7505V101.308Z" fill="#A0DDED"/>
<mask id="mask1_445:4" style="mask-type:alpha" maskUnits="userSpaceOnUse" x="36" y="117" width="94" height="152">
<path d="M74.2155 140.164V117.015H93.3815V140.164L123.885 155.028V162.094L129.014 166.237V172.085L126.045 176.471V193.284L129.014 196.696V202.788L126.045 205.468V247.624L129.014 252.01V262.731L123.885 268.579H41.0124L36.4233 262.731V252.01L41.0124 247.624V205.468L36.4233 202.788V196.696L41.0124 193.284V176.471L36.4233 172.085V166.237L41.0124 162.094V155.028L74.2155 140.164Z" fill="#84C9D9"/>
</mask>
<g mask="url(#mask1_445:4)">
<path d="M24.5098 76.1746H187.689V310.328H24.5098V76.1746Z" fill="#BFF2FF"/>
<g style="mix-blend-mode:multiply" opacity="0.5">
<path d="M57.7421 200.682C45.8753 199.037 -21.5438 217.579 -31.1817 224.627C-45.8434 235.35 -31.1817 473.862 -31.1817 473.862L181.96 503.811C181.96 503.811 176.302 192.69 157.208 192.409C147.262 192.262 112.079 215.378 102.204 216.565C91.5272 217.848 86.1578 211.654 76.0769 207.943C68.8486 205.282 65.3793 201.741 57.7421 200.682Z" fill="#00A5CF"/>
</g>
<g style="mix-blend-mode:multiply" opacity="0.2">
<path d="M-23.1619 76.1746H82.263V310.328H-23.1619V76.1746Z" fill="#30C2E8"/>
</g>
<g style="mix-blend-mode:screen">
<path fill-rule="evenodd" clip-rule="evenodd" d="M86.1716 122.075H88.1716V143.632L103.756 155.925V263.656H101.756V156.895L86.1716 144.602V122.075Z" fill="white"/>
</g>
</g>
<path fill-rule="evenodd" clip-rule="evenodd" d="M20.0896 105.143C20.0896 101.83 22.7759 99.1432 26.0896 99.1432H139.572C142.885 99.1432 145.572 101.83 145.572 105.143V270.168H20.0896V105.143ZM26.0896 103.143C24.985 103.143 24.0896 104.039 24.0896 105.143V266.168H141.572V105.143C141.572 104.039 140.676 103.143 139.572 103.143H26.0896Z" fill="#A0E6FA"/>
<g style="mix-blend-mode:multiply">
<path d="M156.454 107.5C156.454 105.29 158.245 103.5 160.454 103.5H211.354C213.563 103.5 215.354 105.29 215.354 107.5V112.49C215.354 114.699 213.563 116.49 211.354 116.49H160.454C158.245 116.49 156.454 114.699 156.454 112.49V107.5Z" fill="#A0E6FA"/>
</g>
<path d="M156.454 105.143C156.454 102.934 158.245 101.143 160.454 101.143H211.354C213.563 101.143 215.354 102.934 215.354 105.143V110.134C215.354 112.343 213.563 114.134 211.354 114.134H160.454C158.245 114.134 156.454 112.343 156.454 110.134V105.143Z" fill="#A0E6FA"/>
<g style="mix-blend-mode:multiply">
<path d="M156.454 127.914C156.454 125.704 158.245 123.914 160.454 123.914H211.354C213.563 123.914 215.354 125.704 215.354 127.914V162.598C215.354 164.807 213.563 166.598 211.354 166.598H160.454C158.245 166.598 156.454 164.807 156.454 162.598V127.914Z" fill="#A0E6FA"/>
</g>
<path d="M156.284 125.728C156.284 123.519 158.075 121.728 160.284 121.728H211.184C213.394 121.728 215.184 123.519 215.184 125.728V160.412C215.184 162.621 213.394 164.412 211.184 164.412H160.284C158.075 164.412 156.284 162.621 156.284 160.412V125.728Z" fill="#A0E6FA"/>
<g style="mix-blend-mode:multiply">
<path d="M156.454 176.164C156.454 173.955 158.245 172.164 160.454 172.164H211.354C213.563 172.164 215.354 173.955 215.354 176.164V266.523C215.354 268.733 213.563 270.523 211.354 270.523H160.454C158.245 270.523 156.454 268.733 156.454 266.523V176.164Z" fill="#A0E6FA"/>
</g>
<path d="M156.284 173.633C156.284 171.424 158.075 169.633 160.284 169.633H211.184C213.394 169.633 215.184 171.424 215.184 173.633V263.992C215.184 266.201 213.394 267.992 211.184 267.992H160.284C158.075 267.992 156.284 266.201 156.284 263.992V173.633Z" fill="#A0E6FA"/>
<g style="mix-blend-mode:multiply">
<path d="M21.9883 37.7693C21.9883 35.5601 23.7791 33.7693 25.9883 33.7693H211.255C213.465 33.7693 215.255 35.5601 215.255 37.7693V80.73C215.255 82.9391 213.465 84.73 211.255 84.73H25.9883C23.7791 84.73 21.9883 82.9391 21.9883 80.73V37.7693Z" fill="#A0E6FA"/>
</g>
<path d="M21.9883 30.7012C21.9883 28.492 23.7791 26.7012 25.9883 26.7012H211.255C213.465 26.7012 215.255 28.492 215.255 30.7012V78.3762C215.255 80.5853 213.465 82.3762 211.255 82.3762H25.9883C23.7791 82.3762 21.9883 80.5853 21.9883 78.3762V30.7012Z" fill="#A0E6FA"/>
<path d="M90.5191 46.5509L83.0697 69.322H77.4095L72.3998 53.9027L67.2276 69.322H61.5998L54.1179 46.5509H59.583L64.7227 62.5557L70.0902 46.5509H74.9697L80.1745 62.6858L85.477 46.5509H90.5191Z" fill="#50BDE3"/>
<path d="M107.695 64.4425H97.1227L95.1059 69.322H89.7059L99.8553 46.5509H105.06L115.242 69.322H109.712L107.695 64.4425ZM106.036 60.4413L102.425 51.7232L98.8143 60.4413H106.036Z" fill="#50BDE3"/>
<path d="M121.178 50.8449H113.891V46.5509H133.734V50.8449H126.448V69.322H121.178V50.8449Z" fill="#50BDE3"/>
<path d="M154.201 65.0931V69.322H136.57V46.5509H153.778V50.7798H141.807V55.7244H152.379V59.8232H141.807V65.0931H154.201Z" fill="#50BDE3"/>
<path d="M172.903 69.322L168.511 62.9786H168.251H163.664V69.322H158.394V46.5509H168.251C170.268 46.5509 172.014 46.887 173.488 47.5593C174.985 48.2316 176.134 49.1858 176.936 50.422C177.739 51.6581 178.14 53.122 178.14 54.8136C178.14 56.5051 177.728 57.969 176.904 59.2051C176.101 60.4196 174.952 61.3521 173.456 62.0027L178.563 69.322H172.903ZM172.805 54.8136C172.805 53.534 172.393 52.5581 171.569 51.8858C170.745 51.1919 169.541 50.8449 167.958 50.8449H163.664V58.7822H167.958C169.541 58.7822 170.745 58.4352 171.569 57.7413C172.393 57.0473 172.805 56.0714 172.805 54.8136Z" fill="#50BDE3"/>
<g style="mix-blend-mode:screen">
<path d="M92.0921 45.0994L84.6427 67.8705H78.9825L73.9728 52.4512L68.8006 67.8705H63.1728L55.6909 45.0994H61.156L66.2957 61.1042L71.6632 45.0994H76.5427L81.7475 61.2344L87.05 45.0994H92.0921Z" fill="white"/>
<path d="M109.268 62.991H98.6957L96.6789 67.8705H91.2789L101.428 45.0994H106.633L116.815 67.8705H111.285L109.268 62.991ZM107.609 58.9898L103.998 50.2717L100.387 58.9898H107.609Z" fill="white"/>
<path d="M122.751 49.3934H115.464V45.0994H135.307V49.3934H128.021V67.8705H122.751V49.3934Z" fill="white"/>
<path d="M155.774 63.6416V67.8705H138.143V45.0994H155.351V49.3283H143.38V54.2729H153.952V58.3717H143.38V63.6416H155.774Z" fill="white"/>
<path d="M174.476 67.8705L170.084 61.5271H169.824H165.237V67.8705H159.967V45.0994H169.824C171.841 45.0994 173.587 45.4356 175.061 46.1079C176.558 46.7801 177.707 47.7344 178.509 48.9705C179.312 50.2067 179.713 51.6705 179.713 53.3621C179.713 55.0536 179.301 56.5175 178.477 57.7536C177.674 58.9681 176.525 59.9006 175.029 60.5512L180.136 67.8705H174.476ZM174.378 53.3621C174.378 52.0826 173.966 51.1067 173.142 50.4344C172.318 49.7404 171.114 49.3934 169.531 49.3934H165.237V57.3308H169.531C171.114 57.3308 172.318 56.9838 173.142 56.2898C173.966 55.5958 174.378 54.6199 174.378 53.3621Z" fill="white"/>
</g>
<g style="mix-blend-mode:screen">
<path d="M2.35522 5.49811C2.35522 5.06438 2.70683 4.71277 3.14056 4.71277H232.46C232.893 4.71277 233.245 5.06438 233.245 5.49811C233.245 5.93184 232.893 6.28345 232.46 6.28345H3.14056C2.70683 6.28345 2.35522 5.93184 2.35522 5.49811Z" fill="white" fill-opacity="0.8"/>
</g>
<g style="mix-blend-mode:screen">
<path d="M24.3435 29.8419C24.3435 29.4081 24.6951 29.0565 25.1288 29.0565H212.04C212.473 29.0565 212.825 29.4081 212.825 29.8419C212.825 30.2756 212.473 30.6272 212.04 30.6272H25.1288C24.6951 30.6272 24.3435 30.2756 24.3435 29.8419Z" fill="white" fill-opacity="0.8"/>
</g>
<g style="mix-blend-mode:screen">
<path d="M158.639 104.451C158.639 104.017 158.991 103.665 159.424 103.665H212.042C212.476 103.665 212.828 104.017 212.828 104.451C212.828 104.884 212.476 105.236 212.042 105.236H159.424C158.991 105.236 158.639 104.884 158.639 104.451Z" fill="white" fill-opacity="0.8"/>
</g>
<g style="mix-blend-mode:screen">
<path d="M158.639 124.868C158.639 124.435 158.991 124.083 159.424 124.083H212.042C212.476 124.083 212.828 124.435 212.828 124.868C212.828 125.302 212.476 125.654 212.042 125.654H159.424C158.991 125.654 158.639 125.302 158.639 124.868Z" fill="white" fill-opacity="0.8"/>
</g>
<g style="mix-blend-mode:screen">
<path d="M158.639 172.774C158.639 172.34 158.991 171.988 159.424 171.988H212.042C212.476 171.988 212.828 172.34 212.828 172.774C212.828 173.207 212.476 173.559 212.042 173.559H159.424C158.991 173.559 158.639 173.207 158.639 172.774Z" fill="white" fill-opacity="0.8"/>
</g>
</g>
</mask>
<g mask="url(#mask0_445:4)">
<g opacity="0.85">
<path d="M175.13 287.435H215.182V296C215.182 298.209 213.392 300 211.182 300H179.13C176.921 300 175.13 298.209 175.13 296V287.435Z" fill="#71C9E8"/>
<path d="M21.9883 287.435H62.826V296C62.826 298.209 61.0351 300 58.826 300H25.9883C23.7791 300 21.9883 298.209 21.9883 296V287.435Z" fill="#71C9E8"/>
<g style="mix-blend-mode:multiply">
<path d="M175.13 287.435H215.182V296C215.182 298.209 213.392 300 211.182 300H179.13C176.921 300 175.13 298.209 175.13 296V287.435Z" fill="#71C9E8"/>
</g>
<g style="mix-blend-mode:multiply">
<path d="M21.9883 287.435H62.826V296C62.826 298.209 61.0351 300 58.826 300H25.9883C23.7791 300 21.9883 298.209 21.9883 296V287.435Z" fill="#71C9E8"/>
</g>
<path d="M0 4C0 1.79086 1.79086 0 4 0H231.602C233.811 0 235.602 1.79086 235.602 4V283.654C235.602 285.863 233.811 287.654 231.602 287.654H4C1.79086 287.654 0 285.863 0 283.654V4Z" fill="#50BDE3"/>
<g style="mix-blend-mode:multiply">
<path d="M21.9883 105.308C21.9883 103.099 23.7791 101.308 25.9883 101.308H139.47C141.68 101.308 143.47 103.099 143.47 105.308V268.333H21.9883V105.308Z" fill="#71C9E8"/>
</g>
<path d="M77.7505 101.308H89.5306V142.931H77.7505V101.308Z" fill="#A0DDED"/>
<mask id="mask2_445:4" style="mask-type:alpha" maskUnits="userSpaceOnUse" x="36" y="117" width="94" height="152">
<path d="M74.2155 140.164V117.015H93.3815V140.164L123.885 155.028V162.094L129.014 166.237V172.085L126.045 176.471V193.284L129.014 196.696V202.788L126.045 205.468V247.624L129.014 252.01V262.731L123.885 268.579H41.0124L36.4233 262.731V252.01L41.0124 247.624V205.468L36.4233 202.788V196.696L41.0124 193.284V176.471L36.4233 172.085V166.237L41.0124 162.094V155.028L74.2155 140.164Z" fill="#84C9D9"/>
</mask>
<g mask="url(#mask2_445:4)">
<path d="M24.5098 76.1746H187.689V310.328H24.5098V76.1746Z" fill="#BFF2FF"/>
<g style="mix-blend-mode:multiply" opacity="0.5">
<path d="M57.7421 200.682C45.8753 199.037 -21.5438 217.579 -31.1817 224.627C-45.8434 235.35 -31.1817 473.862 -31.1817 473.862L181.96 503.811C181.96 503.811 176.302 192.69 157.208 192.409C147.262 192.262 112.079 215.378 102.204 216.565C91.5272 217.848 86.1578 211.654 76.0769 207.943C68.8486 205.282 65.3793 201.741 57.7421 200.682Z" fill="#00A5CF"/>
</g>
<g style="mix-blend-mode:multiply" opacity="0.2">
<path d="M-23.1619 76.1746H82.263V310.328H-23.1619V76.1746Z" fill="#30C2E8"/>
</g>
<g style="mix-blend-mode:screen">
<path fill-rule="evenodd" clip-rule="evenodd" d="M86.1716 122.075H88.1716V143.632L103.756 155.925V263.656H101.756V156.895L86.1716 144.602V122.075Z" fill="white"/>
</g>
</g>
<path fill-rule="evenodd" clip-rule="evenodd" d="M20.0896 105.143C20.0896 101.83 22.7759 99.1432 26.0896 99.1432H139.572C142.885 99.1432 145.572 101.83 145.572 105.143V270.168H20.0896V105.143ZM26.0896 103.143C24.985 103.143 24.0896 104.039 24.0896 105.143V266.168H141.572V105.143C141.572 104.039 140.676 103.143 139.572 103.143H26.0896Z" fill="#A0E6FA"/>
<g style="mix-blend-mode:multiply">
<path d="M156.454 107.5C156.454 105.29 158.245 103.5 160.454 103.5H211.354C213.563 103.5 215.354 105.29 215.354 107.5V112.49C215.354 114.699 213.563 116.49 211.354 116.49H160.454C158.245 116.49 156.454 114.699 156.454 112.49V107.5Z" fill="#A0E6FA"/>
</g>
<path d="M156.454 105.143C156.454 102.934 158.245 101.143 160.454 101.143H211.354C213.563 101.143 215.354 102.934 215.354 105.143V110.134C215.354 112.343 213.563 114.134 211.354 114.134H160.454C158.245 114.134 156.454 112.343 156.454 110.134V105.143Z" fill="#A0E6FA"/>
<g style="mix-blend-mode:multiply">
<path d="M156.454 127.914C156.454 125.704 158.245 123.914 160.454 123.914H211.354C213.563 123.914 215.354 125.704 215.354 127.914V162.598C215.354 164.807 213.563 166.598 211.354 166.598H160.454C158.245 166.598 156.454 164.807 156.454 162.598V127.914Z" fill="#A0E6FA"/>
</g>
<path d="M156.284 125.728C156.284 123.519 158.075 121.728 160.284 121.728H211.184C213.394 121.728 215.184 123.519 215.184 125.728V160.412C215.184 162.621 213.394 164.412 211.184 164.412H160.284C158.075 164.412 156.284 162.621 156.284 160.412V125.728Z" fill="#A0E6FA"/>
<g style="mix-blend-mode:multiply">
<path d="M156.454 176.164C156.454 173.955 158.245 172.164 160.454 172.164H211.354C213.563 172.164 215.354 173.955 215.354 176.164V266.523C215.354 268.733 213.563 270.523 211.354 270.523H160.454C158.245 270.523 156.454 268.733 156.454 266.523V176.164Z" fill="#A0E6FA"/>
</g>
<path d="M156.284 173.633C156.284 171.424 158.075 169.633 160.284 169.633H211.184C213.394 169.633 215.184 171.424 215.184 173.633V263.992C215.184 266.201 213.394 267.992 211.184 267.992H160.284C158.075 267.992 156.284 266.201 156.284 263.992V173.633Z" fill="#A0E6FA"/>
<g style="mix-blend-mode:multiply">
<path d="M21.9883 37.7693C21.9883 35.5601 23.7791 33.7693 25.9883 33.7693H211.255C213.465 33.7693 215.255 35.5601 215.255 37.7693V80.73C215.255 82.9391 213.465 84.73 211.255 84.73H25.9883C23.7791 84.73 21.9883 82.9391 21.9883 80.73V37.7693Z" fill="#A0E6FA"/>
</g>
<path d="M21.9883 30.7012C21.9883 28.492 23.7791 26.7012 25.9883 26.7012H211.255C213.465 26.7012 215.255 28.492 215.255 30.7012V78.3762C215.255 80.5853 213.465 82.3762 211.255 82.3762H25.9883C23.7791 82.3762 21.9883 80.5853 21.9883 78.3762V30.7012Z" fill="#A0E6FA"/>
<path d="M90.5191 46.5509L83.0697 69.322H77.4095L72.3998 53.9027L67.2276 69.322H61.5998L54.1179 46.5509H59.583L64.7227 62.5557L70.0902 46.5509H74.9697L80.1745 62.6858L85.477 46.5509H90.5191Z" fill="#50BDE3"/>
<path d="M107.695 64.4425H97.1227L95.1059 69.322H89.7059L99.8553 46.5509H105.06L115.242 69.322H109.712L107.695 64.4425ZM106.036 60.4413L102.425 51.7232L98.8143 60.4413H106.036Z" fill="#50BDE3"/>
<path d="M121.178 50.8449H113.891V46.5509H133.734V50.8449H126.448V69.322H121.178V50.8449Z" fill="#50BDE3"/>
<path d="M154.201 65.0931V69.322H136.57V46.5509H153.778V50.7798H141.807V55.7244H152.379V59.8232H141.807V65.0931H154.201Z" fill="#50BDE3"/>
<path d="M172.903 69.322L168.511 62.9786H168.251H163.664V69.322H158.394V46.5509H168.251C170.268 46.5509 172.014 46.887 173.488 47.5593C174.985 48.2316 176.134 49.1858 176.936 50.422C177.739 51.6581 178.14 53.122 178.14 54.8136C178.14 56.5051 177.728 57.969 176.904 59.2051C176.101 60.4196 174.952 61.3521 173.456 62.0027L178.563 69.322H172.903ZM172.805 54.8136C172.805 53.534 172.393 52.5581 171.569 51.8858C170.745 51.1919 169.541 50.8449 167.958 50.8449H163.664V58.7822H167.958C169.541 58.7822 170.745 58.4352 171.569 57.7413C172.393 57.0473 172.805 56.0714 172.805 54.8136Z" fill="#50BDE3"/>
<g style="mix-blend-mode:screen">
<path d="M92.0921 45.0994L84.6427 67.8705H78.9825L73.9728 52.4512L68.8006 67.8705H63.1728L55.6909 45.0994H61.156L66.2957 61.1042L71.6632 45.0994H76.5427L81.7475 61.2344L87.05 45.0994H92.0921Z" fill="white"/>
<path d="M109.268 62.991H98.6957L96.6789 67.8705H91.2789L101.428 45.0994H106.633L116.815 67.8705H111.285L109.268 62.991ZM107.609 58.9898L103.998 50.2717L100.387 58.9898H107.609Z" fill="white"/>
<path d="M122.751 49.3934H115.464V45.0994H135.307V49.3934H128.021V67.8705H122.751V49.3934Z" fill="white"/>
<path d="M155.774 63.6416V67.8705H138.143V45.0994H155.351V49.3283H143.38V54.2729H153.952V58.3717H143.38V63.6416H155.774Z" fill="white"/>
<path d="M174.476 67.8705L170.084 61.5271H169.824H165.237V67.8705H159.967V45.0994H169.824C171.841 45.0994 173.587 45.4356 175.061 46.1079C176.558 46.7801 177.707 47.7344 178.509 48.9705C179.312 50.2067 179.713 51.6705 179.713 53.3621C179.713 55.0536 179.301 56.5175 178.477 57.7536C177.674 58.9681 176.525 59.9006 175.029 60.5512L180.136 67.8705H174.476ZM174.378 53.3621C174.378 52.0826 173.966 51.1067 173.142 50.4344C172.318 49.7404 171.114 49.3934 169.531 49.3934H165.237V57.3308H169.531C171.114 57.3308 172.318 56.9838 173.142 56.2898C173.966 55.5958 174.378 54.6199 174.378 53.3621Z" fill="white"/>
</g>
<g style="mix-blend-mode:screen">
<path d="M2.35522 5.49811C2.35522 5.06438 2.70683 4.71277 3.14056 4.71277H232.46C232.893 4.71277 233.245 5.06438 233.245 5.49811C233.245 5.93184 232.893 6.28345 232.46 6.28345H3.14056C2.70683 6.28345 2.35522 5.93184 2.35522 5.49811Z" fill="white" fill-opacity="0.8"/>
</g>
<g style="mix-blend-mode:screen">
<path d="M24.3435 29.8419C24.3435 29.4081 24.6951 29.0565 25.1288 29.0565H212.04C212.473 29.0565 212.825 29.4081 212.825 29.8419C212.825 30.2756 212.473 30.6272 212.04 30.6272H25.1288C24.6951 30.6272 24.3435 30.2756 24.3435 29.8419Z" fill="white" fill-opacity="0.8"/>
</g>
<g style="mix-blend-mode:screen">
<path d="M158.639 104.451C158.639 104.017 158.991 103.665 159.424 103.665H212.042C212.476 103.665 212.828 104.017 212.828 104.451C212.828 104.884 212.476 105.236 212.042 105.236H159.424C158.991 105.236 158.639 104.884 158.639 104.451Z" fill="white" fill-opacity="0.8"/>
</g>
<g style="mix-blend-mode:screen">
<path d="M158.639 124.868C158.639 124.435 158.991 124.083 159.424 124.083H212.042C212.476 124.083 212.828 124.435 212.828 124.868C212.828 125.302 212.476 125.654 212.042 125.654H159.424C158.991 125.654 158.639 125.302 158.639 124.868Z" fill="white" fill-opacity="0.8"/>
</g>
<g style="mix-blend-mode:screen">
<path d="M158.639 172.774C158.639 172.34 158.991 171.988 159.424 171.988H212.042C212.476 171.988 212.828 172.34 212.828 172.774C212.828 173.207 212.476 173.559 212.042 173.559H159.424C158.991 173.559 158.639 173.207 158.639 172.774Z" fill="white" fill-opacity="0.8"/>
</g>
</g>
<g style="mix-blend-mode:color">
<path d="M0 0H236V300H0V0Z" fill="#00D5FF"/>
</g>
</g>
</svg>
