<svg width="313" height="300" viewBox="0 0 313 300" fill="none" xmlns="http://www.w3.org/2000/svg">
<mask id="mask0_446:92" style="mask-type:alpha" maskUnits="userSpaceOnUse" x="0" y="0" width="313" height="300">
<mask id="mask1_446:92" style="mask-type:alpha" maskUnits="userSpaceOnUse" x="189" y="0" width="124" height="202">
<path d="M239.816 30.7045V0H265.237V30.7045L305.697 50.42V59.7929L312.5 65.2874V73.0444L308.561 78.862V101.163L312.5 105.688V113.768L308.561 117.323V173.238L312.5 179.056V193.277L305.697 201.034H195.776L189.689 193.277V179.056L195.776 173.238V117.323L189.689 113.768V105.688L195.776 101.163V78.862L189.689 73.0444V65.2874L195.776 59.7929V50.42L239.816 30.7045Z" fill="#84C9D9"/>
</mask>
<g mask="url(#mask1_446:92)">
<rect x="173.881" y="-54.171" width="216.44" height="310.579" fill="#BFF2FF"/>
<g style="mix-blend-mode:multiply" opacity="0.5">
<path d="M207.928 68.1545C192.188 65.9721 165.994 58.8051 153.21 68.1545C133.763 82.3774 110.652 420.866 110.652 420.866L393.361 460.591C393.361 460.591 366.401 58.8976 341.075 58.5242C327.883 58.3297 286.687 48.985 273.59 50.5593C259.428 52.2615 257.174 58.5242 239.543 63.8011C229.752 66.7314 218.058 69.5591 207.928 68.1545Z" fill="#00A5CF"/>
</g>
<g style="mix-blend-mode:multiply" opacity="0.2">
<rect x="110.652" y="-54.171" width="139.835" height="310.579" fill="#30C2E8"/>
</g>
<g style="mix-blend-mode:screen">
<path d="M257.782 7.22272V36.4598L278.453 52.7651V195.015" stroke="white" stroke-width="2"/>
</g>
<g style="mix-blend-mode:lighten">
<rect x="94.8447" y="-24.076" width="312.5" height="250.389" fill="white" fill-opacity="0.5"/>
</g>
</g>
<mask id="mask2_446:92" style="mask-type:alpha" maskUnits="userSpaceOnUse" x="104" y="0" width="124" height="202">
<path d="M154.699 30.7045V0H180.121V30.7045L220.58 50.42V59.7929L227.383 65.2874V73.0444L223.445 78.862V101.163L227.383 105.688V113.768L223.445 117.323V173.238L227.383 179.056V193.277L220.58 201.034H110.659L104.572 193.277V179.056L110.659 173.238V117.323L104.572 113.768V105.688L110.659 101.163V78.862L104.572 73.0444V65.2874L110.659 59.7929V50.42L154.699 30.7045Z" fill="#84C9D9"/>
</mask>
<g mask="url(#mask2_446:92)">
<rect x="88.7644" y="-54.171" width="216.44" height="310.579" fill="#BFF2FF"/>
<g style="mix-blend-mode:multiply" opacity="0.5">
<path d="M122.811 68.1545C107.071 65.9721 80.8771 58.8051 68.0935 68.1545C48.6465 82.3774 25.5352 420.866 25.5352 420.866L308.244 460.591C308.244 460.591 281.284 58.8976 255.958 58.5242C242.766 58.3297 201.571 48.985 188.473 50.5593C174.311 52.2615 172.058 58.5242 154.426 63.8011C144.635 66.7314 132.941 69.5591 122.811 68.1545Z" fill="#00A5CF"/>
</g>
<g style="mix-blend-mode:multiply" opacity="0.2">
<rect x="25.5352" y="-54.171" width="139.835" height="310.579" fill="#30C2E8"/>
</g>
<g style="mix-blend-mode:screen">
<path d="M172.665 7.22272V36.4598L193.336 52.7651V195.015" stroke="white" stroke-width="2"/>
</g>
<g style="mix-blend-mode:lighten">
<rect x="9.72754" y="-24.076" width="312.5" height="250.389" fill="white" fill-opacity="0.5"/>
</g>
</g>
<mask id="mask3_446:92" style="mask-type:alpha" maskUnits="userSpaceOnUse" x="0" y="0" width="123" height="202">
<path d="M50.1271 30.7045V0H75.5487V30.7045L116.008 50.42V59.7929L122.811 65.2874V73.0444L118.873 78.862V101.163L122.811 105.688V113.768L118.873 117.323V173.238L122.811 179.056V193.277L116.008 201.034H6.08686L0 193.277V179.056L6.08686 173.238V117.323L0 113.768V105.688L6.08686 101.163V78.862L0 73.0444V65.2874L6.08686 59.7929V50.42L50.1271 30.7045Z" fill="#84C9D9"/>
</mask>
<g mask="url(#mask3_446:92)">
<rect x="-15.8076" y="-54.171" width="216.44" height="310.579" fill="#BFF2FF"/>
<g style="mix-blend-mode:multiply" opacity="0.5">
<path d="M24.3189 58.5241C8.57892 56.3417 -75.9811 53.2477 -88.7647 62.5972C-108.212 76.8201 -79.037 420.866 -79.037 420.866L203.672 460.591C203.672 460.591 251.493 58.8976 226.167 58.5242C212.975 58.3296 116.454 48.985 103.356 50.5593C89.1943 52.2615 76.6007 73.0763 63.2295 68.1545C53.642 64.6254 34.4488 59.9287 24.3189 58.5241Z" fill="#00A5CF"/>
</g>
<g style="mix-blend-mode:multiply" opacity="0.2">
<rect x="-79.0369" y="-54.171" width="139.835" height="310.579" fill="#30C2E8"/>
</g>
<g style="mix-blend-mode:screen">
<path d="M68.0935 7.22272V36.4598L88.7647 52.7651V195.015" stroke="white" stroke-width="2"/>
</g>
<g style="mix-blend-mode:lighten">
<rect y="-37.3177" width="312.5" height="250.389" fill="white" fill-opacity="0.5"/>
</g>
</g>
<mask id="mask4_446:92" style="mask-type:alpha" maskUnits="userSpaceOnUse" x="42" y="10" width="124" height="202">
<path d="M92.6854 40.89V10.1855H118.107V40.89L158.567 60.6055V69.9785L165.37 75.473V83.2299L161.431 89.0476V111.349L165.37 115.874V123.954L161.431 127.509V183.423L165.37 189.241V203.462L158.567 211.219H48.6452L42.5583 203.462V189.241L48.6452 183.423V127.509L42.5583 123.954V115.874L48.6452 111.349V89.0476L42.5583 83.2299V75.473L48.6452 69.9785V60.6055L92.6854 40.89Z" fill="#84C9D9"/>
</mask>
<g mask="url(#mask4_446:92)">
<rect x="26.7512" y="-43.9852" width="216.44" height="310.579" fill="#BFF2FF"/>
<g style="mix-blend-mode:multiply" opacity="0.5">
<path d="M60.7983 78.3401C45.0583 76.1577 18.8639 68.9906 6.08035 78.3401C-13.3667 92.563 -36.478 431.052 -36.478 431.052L246.231 470.777C246.231 470.777 219.271 69.0832 193.945 68.7097C180.753 68.5152 139.558 59.1705 126.46 60.7448C112.298 62.447 110.044 68.7097 92.4131 73.9866C82.6219 76.917 70.9282 79.7447 60.7983 78.3401Z" fill="#00A5CF"/>
</g>
<g style="mix-blend-mode:multiply" opacity="0.2">
<rect x="-36.478" y="-43.9852" width="139.835" height="310.579" fill="#30C2E8"/>
</g>
<g style="mix-blend-mode:screen">
<path d="M110.652 17.4084V46.6455L131.323 62.9508V205.2" stroke="white" stroke-width="2"/>
</g>
<g style="mix-blend-mode:lighten">
<rect x="-52.2864" y="-13.8903" width="312.5" height="250.389" fill="white" fill-opacity="0.3"/>
</g>
</g>
<mask id="mask5_446:92" style="mask-type:alpha" maskUnits="userSpaceOnUse" x="138" y="10" width="124" height="202">
<path d="M188.746 40.89V10.1855H214.167V40.89L254.627 60.6055V69.9785L261.43 75.473V83.2299L257.491 89.0476V111.349L261.43 115.874V123.954L257.491 127.509V183.423L261.43 189.241V203.462L254.627 211.219H144.706L138.619 203.462V189.241L144.706 183.423V127.509L138.619 123.954V115.874L144.706 111.349V89.0476L138.619 83.2299V75.473L144.706 69.9785V60.6055L188.746 40.89Z" fill="#84C9D9"/>
</mask>
<g mask="url(#mask5_446:92)">
<rect x="122.812" y="-43.9852" width="216.44" height="310.579" fill="#BFF2FF"/>
<g style="mix-blend-mode:multiply" opacity="0.5">
<path d="M162.938 68.7099C147.198 66.5274 62.638 63.4335 49.8544 72.7829C30.4074 87.0058 59.5821 431.052 59.5821 431.052L342.291 470.777C342.291 470.777 390.112 69.0833 364.786 68.7099C351.594 68.5154 255.073 59.1707 241.975 60.745C227.813 62.4472 215.22 83.2621 201.849 78.3402C192.261 74.8111 173.068 70.1144 162.938 68.7099Z" fill="#00A5CF"/>
</g>
<g style="mix-blend-mode:multiply" opacity="0.2">
<rect x="59.582" y="-43.9852" width="139.835" height="310.579" fill="#30C2E8"/>
</g>
<g style="mix-blend-mode:screen">
<path d="M206.712 17.4084V46.6455L227.383 62.9508V205.2" stroke="white" stroke-width="2"/>
</g>
<g style="mix-blend-mode:lighten">
<rect x="43.7739" y="-13.8903" width="312.5" height="250.389" fill="white" fill-opacity="0.3"/>
</g>
</g>
<mask id="mask6_446:92" style="mask-type:alpha" maskUnits="userSpaceOnUse" x="89" y="20" width="124" height="202">
<path d="M140.108 51.0758V20.3713H165.529V51.0758L205.989 70.7913V80.1642L212.792 85.6587V93.4156L208.853 99.2333V121.534L212.792 126.059V134.139L208.853 137.695V193.609L212.792 199.427V213.648L205.989 221.405H96.0676L89.9807 213.648V199.427L96.0676 193.609V137.695L89.9807 134.139V126.059L96.0676 121.534V99.2333L89.9807 93.4156V85.6587L96.0676 80.1642V70.7913L140.108 51.0758Z" fill="#84C9D9"/>
</mask>
<g mask="url(#mask6_446:92)">
<rect x="74.1733" y="-33.7994" width="216.44" height="310.579" fill="#BFF2FF"/>
<g style="mix-blend-mode:multiply" opacity="0.5">
<path d="M128.891 78.8955C113.151 76.7131 23.7273 101.306 10.9437 110.656C-8.50339 124.879 10.9437 441.237 10.9437 441.237L293.653 480.963C293.653 480.963 286.148 68.2946 260.822 67.9212C247.63 67.7266 200.963 98.3876 187.865 99.9619C173.703 101.664 166.581 93.4477 153.21 88.5259C143.623 84.9968 139.021 80.3001 128.891 78.8955Z" fill="#00A5CF"/>
</g>
<g style="mix-blend-mode:multiply" opacity="0.2">
<rect x="10.9431" y="-33.7994" width="139.835" height="310.579" fill="#30C2E8"/>
</g>
<g style="mix-blend-mode:screen">
<path d="M157.292 27.0834V56.3204L177.963 72.6257V214.875" stroke="white" stroke-width="2"/>
</g>
</g>
<rect y="238.542" width="312.5" height="61.4583" rx="4" fill="#71C9E8"/>
<path d="M23.4417 285.675C20.8634 285.675 18.5261 285.12 16.4297 284.012C14.3574 282.879 12.7188 281.325 11.514 279.349C10.3333 277.349 9.74292 275.096 9.74292 272.59C9.74292 270.084 10.3333 267.843 11.514 265.867C12.7188 263.867 14.3574 262.313 16.4297 261.205C18.5261 260.072 20.8755 259.506 23.4779 259.506C25.6706 259.506 27.6465 259.892 29.4056 260.663C31.1887 261.434 32.6827 262.542 33.8875 263.988L30.1285 267.458C28.4176 265.482 26.2971 264.494 23.767 264.494C22.2008 264.494 20.8032 264.843 19.5742 265.542C18.3453 266.217 17.3815 267.169 16.6827 268.398C16.008 269.626 15.6706 271.024 15.6706 272.59C15.6706 274.157 16.008 275.554 16.6827 276.783C17.3815 278.012 18.3453 278.976 19.5742 279.675C20.8032 280.349 22.2008 280.687 23.767 280.687C26.2971 280.687 28.4176 279.687 30.1285 277.687L33.8875 281.157C32.6827 282.626 31.1887 283.747 29.4056 284.518C27.6224 285.289 25.6345 285.675 23.4417 285.675Z" fill="#59BAE4"/>
<path d="M37.8417 259.94H43.6971V280.47H56.3838V285.241H37.8417V259.94Z" fill="#59BAE4"/>
<path d="M79.2458 280.542V285.241H59.6555V259.94H78.776V264.639H65.4748V270.132H77.2217V274.687H65.4748V280.542H79.2458Z" fill="#59BAE4"/>
<path d="M100.567 279.819H88.8205L86.5795 285.241H80.5795L91.8566 259.94H97.6398L108.953 285.241H102.808L100.567 279.819ZM98.7241 275.373L94.712 265.687L90.7 275.373H98.7241Z" fill="#59BAE4"/>
<path d="M134.783 259.94V285.241H129.976L117.361 269.879V285.241H111.578V259.94H116.421L129 275.301V259.94H134.783Z" fill="#59BAE4"/>
<path d="M189.246 259.94L180.969 285.241H174.68L169.114 268.108L163.367 285.241H157.114L148.8 259.94H154.873L160.584 277.723L166.547 259.94H171.969L177.752 277.867L183.644 259.94H189.246Z" fill="#59BAE4"/>
<path d="M208.331 279.819H196.584L194.343 285.241H188.343L199.62 259.94H205.403L216.716 285.241H210.572L208.331 279.819ZM206.487 275.373L202.475 265.687L198.463 275.373H206.487Z" fill="#59BAE4"/>
<path d="M223.311 264.711H215.215V259.94H237.263V264.711H229.167V285.241H223.311V264.711Z" fill="#59BAE4"/>
<path d="M260.004 280.542V285.241H240.414V259.94H259.534V264.639H246.233V270.132H257.98V274.687H246.233V280.542H260.004Z" fill="#59BAE4"/>
<path d="M280.783 285.241L275.904 278.193H275.615H270.518V285.241H264.663V259.94H275.615C277.856 259.94 279.796 260.313 281.434 261.06C283.097 261.807 284.374 262.867 285.265 264.241C286.157 265.614 286.603 267.241 286.603 269.12C286.603 271 286.145 272.626 285.229 274C284.338 275.349 283.061 276.385 281.398 277.108L287.073 285.241H280.783ZM280.675 269.12C280.675 267.699 280.217 266.614 279.302 265.867C278.386 265.096 277.049 264.711 275.289 264.711H270.518V273.53H275.289C277.049 273.53 278.386 273.145 279.302 272.373C280.217 271.602 280.675 270.518 280.675 269.12Z" fill="#59BAE4"/>
<g style="mix-blend-mode:screen">
<path d="M25.9517 282.55C23.3734 282.55 21.0361 281.995 18.9397 280.887C16.8674 279.754 15.2288 278.2 14.024 276.224C12.8433 274.224 12.2529 271.971 12.2529 269.465C12.2529 266.959 12.8433 264.718 14.024 262.742C15.2288 260.742 16.8674 259.188 18.9397 258.08C21.0361 256.947 23.3855 256.381 25.9879 256.381C28.1806 256.381 30.1565 256.767 31.9156 257.538C33.6987 258.309 35.1927 259.417 36.3975 260.863L32.6385 264.333C30.9276 262.357 28.8071 261.369 26.277 261.369C24.7108 261.369 23.3132 261.718 22.0843 262.417C20.8553 263.092 19.8915 264.044 19.1927 265.273C18.518 266.501 18.1806 267.899 18.1806 269.465C18.1806 271.032 18.518 272.429 19.1927 273.658C19.8915 274.887 20.8553 275.851 22.0843 276.55C23.3132 277.224 24.7108 277.562 26.277 277.562C28.8071 277.562 30.9276 276.562 32.6385 274.562L36.3975 278.032C35.1927 279.501 33.6987 280.622 31.9156 281.393C30.1324 282.164 28.1445 282.55 25.9517 282.55Z" fill="white"/>
<path d="M40.3517 256.815H46.2071V277.345H58.8938V282.116H40.3517V256.815Z" fill="white"/>
<path d="M81.7558 277.417V282.116H62.1655V256.815H81.286V261.514H67.9848V267.007H79.7318V271.562H67.9848V277.417H81.7558Z" fill="white"/>
<path d="M103.077 276.694H91.3305L89.0895 282.116H83.0895L94.3666 256.815H100.15L111.463 282.116H105.318L103.077 276.694ZM101.234 272.248L97.2221 262.562L93.21 272.248H101.234Z" fill="white"/>
<path d="M137.293 256.815V282.116H132.486L119.871 266.754V282.116H114.088V256.815H118.931L131.51 272.176V256.815H137.293Z" fill="white"/>
<path d="M191.756 256.815L183.479 282.116H177.19L171.624 264.983L165.877 282.116H159.624L151.31 256.815H157.383L163.094 274.598L169.057 256.815H174.479L180.262 274.742L186.154 256.815H191.756Z" fill="white"/>
<path d="M210.841 276.694H199.094L196.853 282.116H190.853L202.13 256.815H207.913L219.226 282.116H213.082L210.841 276.694ZM208.997 272.248L204.985 262.562L200.973 272.248H208.997Z" fill="white"/>
<path d="M225.821 261.586H217.725V256.815H239.773V261.586H231.677V282.116H225.821V261.586Z" fill="white"/>
<path d="M262.514 277.417V282.116H242.924V256.815H262.044V261.514H248.743V267.007H260.49V271.562H248.743V277.417H262.514Z" fill="white"/>
<path d="M283.293 282.116L278.414 275.068H278.125H273.028V282.116H267.173V256.815H278.125C280.366 256.815 282.306 257.188 283.944 257.935C285.607 258.682 286.884 259.742 287.775 261.116C288.667 262.489 289.113 264.116 289.113 265.995C289.113 267.875 288.655 269.501 287.739 270.875C286.848 272.224 285.571 273.26 283.908 273.983L289.583 282.116H283.293ZM283.185 265.995C283.185 264.574 282.727 263.489 281.812 262.742C280.896 261.971 279.559 261.586 277.799 261.586H273.028V270.405H277.799C279.559 270.405 280.896 270.02 281.812 269.248C282.727 268.477 283.185 267.393 283.185 265.995Z" fill="white"/>
</g>
</mask>
<g mask="url(#mask0_446:92)">
<mask id="mask7_446:92" style="mask-type:alpha" maskUnits="userSpaceOnUse" x="189" y="0" width="124" height="202">
<path d="M239.816 30.7045V0H265.237V30.7045L305.697 50.42V59.7929L312.5 65.2874V73.0444L308.561 78.862V101.163L312.5 105.688V113.768L308.561 117.323V173.238L312.5 179.056V193.277L305.697 201.034H195.776L189.689 193.277V179.056L195.776 173.238V117.323L189.689 113.768V105.688L195.776 101.163V78.862L189.689 73.0444V65.2874L195.776 59.7929V50.42L239.816 30.7045Z" fill="#84C9D9"/>
</mask>
<g mask="url(#mask7_446:92)">
<rect x="173.881" y="-54.171" width="216.44" height="310.579" fill="#BFF2FF"/>
<g style="mix-blend-mode:multiply" opacity="0.5">
<path d="M207.928 68.1545C192.188 65.9721 165.994 58.8051 153.21 68.1545C133.763 82.3774 110.652 420.866 110.652 420.866L393.361 460.591C393.361 460.591 366.401 58.8976 341.075 58.5242C327.883 58.3297 286.687 48.985 273.59 50.5593C259.428 52.2615 257.174 58.5242 239.543 63.8011C229.752 66.7314 218.058 69.5591 207.928 68.1545Z" fill="#00A5CF"/>
</g>
<g style="mix-blend-mode:multiply" opacity="0.2">
<rect x="110.652" y="-54.171" width="139.835" height="310.579" fill="#30C2E8"/>
</g>
<g style="mix-blend-mode:screen">
<path d="M257.782 7.22272V36.4598L278.453 52.7651V195.015" stroke="white" stroke-width="2"/>
</g>
<g style="mix-blend-mode:lighten">
<rect x="94.8447" y="-24.076" width="312.5" height="250.389" fill="white" fill-opacity="0.5"/>
</g>
</g>
<mask id="mask8_446:92" style="mask-type:alpha" maskUnits="userSpaceOnUse" x="104" y="0" width="124" height="202">
<path d="M154.699 30.7045V0H180.121V30.7045L220.58 50.42V59.7929L227.383 65.2874V73.0444L223.445 78.862V101.163L227.383 105.688V113.768L223.445 117.323V173.238L227.383 179.056V193.277L220.58 201.034H110.659L104.572 193.277V179.056L110.659 173.238V117.323L104.572 113.768V105.688L110.659 101.163V78.862L104.572 73.0444V65.2874L110.659 59.7929V50.42L154.699 30.7045Z" fill="#84C9D9"/>
</mask>
<g mask="url(#mask8_446:92)">
<rect x="88.7644" y="-54.171" width="216.44" height="310.579" fill="#BFF2FF"/>
<g style="mix-blend-mode:multiply" opacity="0.5">
<path d="M122.811 68.1545C107.071 65.9721 80.8771 58.8051 68.0935 68.1545C48.6465 82.3774 25.5352 420.866 25.5352 420.866L308.244 460.591C308.244 460.591 281.284 58.8976 255.958 58.5242C242.766 58.3297 201.571 48.985 188.473 50.5593C174.311 52.2615 172.058 58.5242 154.426 63.8011C144.635 66.7314 132.941 69.5591 122.811 68.1545Z" fill="#00A5CF"/>
</g>
<g style="mix-blend-mode:multiply" opacity="0.2">
<rect x="25.5352" y="-54.171" width="139.835" height="310.579" fill="#30C2E8"/>
</g>
<g style="mix-blend-mode:screen">
<path d="M172.665 7.22272V36.4598L193.336 52.7651V195.015" stroke="white" stroke-width="2"/>
</g>
<g style="mix-blend-mode:lighten">
<rect x="9.72754" y="-24.076" width="312.5" height="250.389" fill="white" fill-opacity="0.5"/>
</g>
</g>
<mask id="mask9_446:92" style="mask-type:alpha" maskUnits="userSpaceOnUse" x="0" y="0" width="123" height="202">
<path d="M50.1271 30.7045V0H75.5487V30.7045L116.008 50.42V59.7929L122.811 65.2874V73.0444L118.873 78.862V101.163L122.811 105.688V113.768L118.873 117.323V173.238L122.811 179.056V193.277L116.008 201.034H6.08686L0 193.277V179.056L6.08686 173.238V117.323L0 113.768V105.688L6.08686 101.163V78.862L0 73.0444V65.2874L6.08686 59.7929V50.42L50.1271 30.7045Z" fill="#84C9D9"/>
</mask>
<g mask="url(#mask9_446:92)">
<rect x="-15.8076" y="-54.171" width="216.44" height="310.579" fill="#BFF2FF"/>
<g style="mix-blend-mode:multiply" opacity="0.5">
<path d="M24.3189 58.5241C8.57892 56.3417 -75.9811 53.2477 -88.7647 62.5972C-108.212 76.8201 -79.037 420.866 -79.037 420.866L203.672 460.591C203.672 460.591 251.493 58.8976 226.167 58.5242C212.975 58.3296 116.454 48.985 103.356 50.5593C89.1943 52.2615 76.6007 73.0763 63.2295 68.1545C53.642 64.6254 34.4488 59.9287 24.3189 58.5241Z" fill="#00A5CF"/>
</g>
<g style="mix-blend-mode:multiply" opacity="0.2">
<rect x="-79.0369" y="-54.171" width="139.835" height="310.579" fill="#30C2E8"/>
</g>
<g style="mix-blend-mode:screen">
<path d="M68.0935 7.22272V36.4598L88.7647 52.7651V195.015" stroke="white" stroke-width="2"/>
</g>
<g style="mix-blend-mode:lighten">
<rect y="-37.3177" width="312.5" height="250.389" fill="white" fill-opacity="0.5"/>
</g>
</g>
<mask id="mask10_446:92" style="mask-type:alpha" maskUnits="userSpaceOnUse" x="42" y="10" width="124" height="202">
<path d="M92.6854 40.89V10.1855H118.107V40.89L158.567 60.6055V69.9785L165.37 75.473V83.2299L161.431 89.0476V111.349L165.37 115.874V123.954L161.431 127.509V183.423L165.37 189.241V203.462L158.567 211.219H48.6452L42.5583 203.462V189.241L48.6452 183.423V127.509L42.5583 123.954V115.874L48.6452 111.349V89.0476L42.5583 83.2299V75.473L48.6452 69.9785V60.6055L92.6854 40.89Z" fill="#84C9D9"/>
</mask>
<g mask="url(#mask10_446:92)">
<rect x="26.7512" y="-43.9852" width="216.44" height="310.579" fill="#BFF2FF"/>
<g style="mix-blend-mode:multiply" opacity="0.5">
<path d="M60.7983 78.3401C45.0583 76.1577 18.8639 68.9906 6.08035 78.3401C-13.3667 92.563 -36.478 431.052 -36.478 431.052L246.231 470.777C246.231 470.777 219.271 69.0832 193.945 68.7097C180.753 68.5152 139.558 59.1705 126.46 60.7448C112.298 62.447 110.044 68.7097 92.4131 73.9866C82.6219 76.917 70.9282 79.7447 60.7983 78.3401Z" fill="#00A5CF"/>
</g>
<g style="mix-blend-mode:multiply" opacity="0.2">
<rect x="-36.478" y="-43.9852" width="139.835" height="310.579" fill="#30C2E8"/>
</g>
<g style="mix-blend-mode:screen">
<path d="M110.652 17.4084V46.6455L131.323 62.9508V205.2" stroke="white" stroke-width="2"/>
</g>
<g style="mix-blend-mode:lighten">
<rect x="-52.2864" y="-13.8903" width="312.5" height="250.389" fill="white" fill-opacity="0.3"/>
</g>
</g>
<mask id="mask11_446:92" style="mask-type:alpha" maskUnits="userSpaceOnUse" x="138" y="10" width="124" height="202">
<path d="M188.746 40.89V10.1855H214.167V40.89L254.627 60.6055V69.9785L261.43 75.473V83.2299L257.491 89.0476V111.349L261.43 115.874V123.954L257.491 127.509V183.423L261.43 189.241V203.462L254.627 211.219H144.706L138.619 203.462V189.241L144.706 183.423V127.509L138.619 123.954V115.874L144.706 111.349V89.0476L138.619 83.2299V75.473L144.706 69.9785V60.6055L188.746 40.89Z" fill="#84C9D9"/>
</mask>
<g mask="url(#mask11_446:92)">
<rect x="122.812" y="-43.9852" width="216.44" height="310.579" fill="#BFF2FF"/>
<g style="mix-blend-mode:multiply" opacity="0.5">
<path d="M162.938 68.7099C147.198 66.5274 62.638 63.4335 49.8544 72.7829C30.4074 87.0058 59.5821 431.052 59.5821 431.052L342.291 470.777C342.291 470.777 390.112 69.0833 364.786 68.7099C351.594 68.5154 255.073 59.1707 241.975 60.745C227.813 62.4472 215.22 83.2621 201.849 78.3402C192.261 74.8111 173.068 70.1144 162.938 68.7099Z" fill="#00A5CF"/>
</g>
<g style="mix-blend-mode:multiply" opacity="0.2">
<rect x="59.582" y="-43.9852" width="139.835" height="310.579" fill="#30C2E8"/>
</g>
<g style="mix-blend-mode:screen">
<path d="M206.712 17.4084V46.6455L227.383 62.9508V205.2" stroke="white" stroke-width="2"/>
</g>
<g style="mix-blend-mode:lighten">
<rect x="43.7739" y="-13.8903" width="312.5" height="250.389" fill="white" fill-opacity="0.3"/>
</g>
</g>
<mask id="mask12_446:92" style="mask-type:alpha" maskUnits="userSpaceOnUse" x="89" y="20" width="124" height="202">
<path d="M140.108 51.0758V20.3713H165.529V51.0758L205.989 70.7913V80.1642L212.792 85.6587V93.4156L208.853 99.2333V121.534L212.792 126.059V134.139L208.853 137.695V193.609L212.792 199.427V213.648L205.989 221.405H96.0676L89.9807 213.648V199.427L96.0676 193.609V137.695L89.9807 134.139V126.059L96.0676 121.534V99.2333L89.9807 93.4156V85.6587L96.0676 80.1642V70.7913L140.108 51.0758Z" fill="#84C9D9"/>
</mask>
<g mask="url(#mask12_446:92)">
<rect x="74.1733" y="-33.7994" width="216.44" height="310.579" fill="#BFF2FF"/>
<g style="mix-blend-mode:multiply" opacity="0.5">
<path d="M128.891 78.8955C113.151 76.7131 23.7273 101.306 10.9437 110.656C-8.50339 124.879 10.9437 441.237 10.9437 441.237L293.653 480.963C293.653 480.963 286.148 68.2946 260.822 67.9212C247.63 67.7266 200.963 98.3876 187.865 99.9619C173.703 101.664 166.581 93.4477 153.21 88.5259C143.623 84.9968 139.021 80.3001 128.891 78.8955Z" fill="#00A5CF"/>
</g>
<g style="mix-blend-mode:multiply" opacity="0.2">
<rect x="10.9431" y="-33.7994" width="139.835" height="310.579" fill="#30C2E8"/>
</g>
<g style="mix-blend-mode:screen">
<path d="M157.292 27.0834V56.3204L177.963 72.6257V214.875" stroke="white" stroke-width="2"/>
</g>
</g>
<rect y="238.542" width="312.5" height="61.4583" rx="4" fill="#71C9E8"/>
<path d="M23.4417 285.675C20.8634 285.675 18.5261 285.12 16.4297 284.012C14.3574 282.879 12.7188 281.325 11.514 279.349C10.3333 277.349 9.74292 275.096 9.74292 272.59C9.74292 270.084 10.3333 267.843 11.514 265.867C12.7188 263.867 14.3574 262.313 16.4297 261.205C18.5261 260.072 20.8755 259.506 23.4779 259.506C25.6706 259.506 27.6465 259.892 29.4056 260.663C31.1887 261.434 32.6827 262.542 33.8875 263.988L30.1285 267.458C28.4176 265.482 26.2971 264.494 23.767 264.494C22.2008 264.494 20.8032 264.843 19.5742 265.542C18.3453 266.217 17.3815 267.169 16.6827 268.398C16.008 269.626 15.6706 271.024 15.6706 272.59C15.6706 274.157 16.008 275.554 16.6827 276.783C17.3815 278.012 18.3453 278.976 19.5742 279.675C20.8032 280.349 22.2008 280.687 23.767 280.687C26.2971 280.687 28.4176 279.687 30.1285 277.687L33.8875 281.157C32.6827 282.626 31.1887 283.747 29.4056 284.518C27.6224 285.289 25.6345 285.675 23.4417 285.675Z" fill="#59BAE4"/>
<path d="M37.8417 259.94H43.6971V280.47H56.3838V285.241H37.8417V259.94Z" fill="#59BAE4"/>
<path d="M79.2458 280.542V285.241H59.6555V259.94H78.776V264.639H65.4748V270.132H77.2217V274.687H65.4748V280.542H79.2458Z" fill="#59BAE4"/>
<path d="M100.567 279.819H88.8205L86.5795 285.241H80.5795L91.8566 259.94H97.6398L108.953 285.241H102.808L100.567 279.819ZM98.7241 275.373L94.712 265.687L90.7 275.373H98.7241Z" fill="#59BAE4"/>
<path d="M134.783 259.94V285.241H129.976L117.361 269.879V285.241H111.578V259.94H116.421L129 275.301V259.94H134.783Z" fill="#59BAE4"/>
<path d="M189.246 259.94L180.969 285.241H174.68L169.114 268.108L163.367 285.241H157.114L148.8 259.94H154.873L160.584 277.723L166.547 259.94H171.969L177.752 277.867L183.644 259.94H189.246Z" fill="#59BAE4"/>
<path d="M208.331 279.819H196.584L194.343 285.241H188.343L199.62 259.94H205.403L216.716 285.241H210.572L208.331 279.819ZM206.487 275.373L202.475 265.687L198.463 275.373H206.487Z" fill="#59BAE4"/>
<path d="M223.311 264.711H215.215V259.94H237.263V264.711H229.167V285.241H223.311V264.711Z" fill="#59BAE4"/>
<path d="M260.004 280.542V285.241H240.414V259.94H259.534V264.639H246.233V270.132H257.98V274.687H246.233V280.542H260.004Z" fill="#59BAE4"/>
<path d="M280.783 285.241L275.904 278.193H275.615H270.518V285.241H264.663V259.94H275.615C277.856 259.94 279.796 260.313 281.434 261.06C283.097 261.807 284.374 262.867 285.265 264.241C286.157 265.614 286.603 267.241 286.603 269.12C286.603 271 286.145 272.626 285.229 274C284.338 275.349 283.061 276.385 281.398 277.108L287.073 285.241H280.783ZM280.675 269.12C280.675 267.699 280.217 266.614 279.302 265.867C278.386 265.096 277.049 264.711 275.289 264.711H270.518V273.53H275.289C277.049 273.53 278.386 273.145 279.302 272.373C280.217 271.602 280.675 270.518 280.675 269.12Z" fill="#59BAE4"/>
<g style="mix-blend-mode:screen">
<path d="M25.9517 282.55C23.3734 282.55 21.0361 281.995 18.9397 280.887C16.8674 279.754 15.2288 278.2 14.024 276.224C12.8433 274.224 12.2529 271.971 12.2529 269.465C12.2529 266.959 12.8433 264.718 14.024 262.742C15.2288 260.742 16.8674 259.188 18.9397 258.08C21.0361 256.947 23.3855 256.381 25.9879 256.381C28.1806 256.381 30.1565 256.767 31.9156 257.538C33.6987 258.309 35.1927 259.417 36.3975 260.863L32.6385 264.333C30.9276 262.357 28.8071 261.369 26.277 261.369C24.7108 261.369 23.3132 261.718 22.0843 262.417C20.8553 263.092 19.8915 264.044 19.1927 265.273C18.518 266.501 18.1806 267.899 18.1806 269.465C18.1806 271.032 18.518 272.429 19.1927 273.658C19.8915 274.887 20.8553 275.851 22.0843 276.55C23.3132 277.224 24.7108 277.562 26.277 277.562C28.8071 277.562 30.9276 276.562 32.6385 274.562L36.3975 278.032C35.1927 279.501 33.6987 280.622 31.9156 281.393C30.1324 282.164 28.1445 282.55 25.9517 282.55Z" fill="white"/>
<path d="M40.3517 256.815H46.2071V277.345H58.8938V282.116H40.3517V256.815Z" fill="white"/>
<path d="M81.7558 277.417V282.116H62.1655V256.815H81.286V261.514H67.9848V267.007H79.7318V271.562H67.9848V277.417H81.7558Z" fill="white"/>
<path d="M103.077 276.694H91.3305L89.0895 282.116H83.0895L94.3666 256.815H100.15L111.463 282.116H105.318L103.077 276.694ZM101.234 272.248L97.2221 262.562L93.21 272.248H101.234Z" fill="white"/>
<path d="M137.293 256.815V282.116H132.486L119.871 266.754V282.116H114.088V256.815H118.931L131.51 272.176V256.815H137.293Z" fill="white"/>
<path d="M191.756 256.815L183.479 282.116H177.19L171.624 264.983L165.877 282.116H159.624L151.31 256.815H157.383L163.094 274.598L169.057 256.815H174.479L180.262 274.742L186.154 256.815H191.756Z" fill="white"/>
<path d="M210.841 276.694H199.094L196.853 282.116H190.853L202.13 256.815H207.913L219.226 282.116H213.082L210.841 276.694ZM208.997 272.248L204.985 262.562L200.973 272.248H208.997Z" fill="white"/>
<path d="M225.821 261.586H217.725V256.815H239.773V261.586H231.677V282.116H225.821V261.586Z" fill="white"/>
<path d="M262.514 277.417V282.116H242.924V256.815H262.044V261.514H248.743V267.007H260.49V271.562H248.743V277.417H262.514Z" fill="white"/>
<path d="M283.293 282.116L278.414 275.068H278.125H273.028V282.116H267.173V256.815H278.125C280.366 256.815 282.306 257.188 283.944 257.935C285.607 258.682 286.884 259.742 287.775 261.116C288.667 262.489 289.113 264.116 289.113 265.995C289.113 267.875 288.655 269.501 287.739 270.875C286.848 272.224 285.571 273.26 283.908 273.983L289.583 282.116H283.293ZM283.185 265.995C283.185 264.574 282.727 263.489 281.812 262.742C280.896 261.971 279.559 261.586 277.799 261.586H273.028V270.405H277.799C279.559 270.405 280.896 270.02 281.812 269.248C282.727 268.477 283.185 267.393 283.185 265.995Z" fill="white"/>
</g>
<g style="mix-blend-mode:color">
<rect width="313" height="300" fill="#00D5FF"/>
</g>
</g>
</svg>
